<mxfile host="app.diagrams.net" modified="2021-09-06T08:45:44.536Z" agent="5.0 (Windows NT 10.0; Win64; x64) AppleWebKit/537.36 (KHTML, like Gecko) Chrome/92.0.4515.159 Safari/537.36" etag="8oefeVCOJVJdoMzOq9ou" version="15.0.6" type="github">
  <diagram id="CjyDBgkY8oRkE1PANgcw" name="Page-1">
    <mxGraphModel dx="667" dy="2395" grid="1" gridSize="10" guides="1" tooltips="1" connect="1" arrows="1" fold="1" page="1" pageScale="1" pageWidth="1169" pageHeight="827" math="0" shadow="0">
      <root>
        <mxCell id="0" />
        <mxCell id="1" parent="0" />
        <mxCell id="ZrbWM_IVjNoFiUcgMcWU-2" value="Smartphone&#xa;" style="swimlane;fontStyle=1;align=center;verticalAlign=top;childLayout=stackLayout;horizontal=1;startSize=26;horizontalStack=0;resizeParent=1;resizeParentMax=0;resizeLast=0;collapsible=1;marginBottom=0;rounded=0;sketch=0;fontColor=#095C86;strokeColor=#AF45ED;fillColor=#F694C1;" vertex="1" parent="1">
          <mxGeometry x="2058" width="280" height="890" as="geometry" />
        </mxCell>
        <mxCell id="ZrbWM_IVjNoFiUcgMcWU-44" value="- company: string" style="text;strokeColor=none;fillColor=none;align=left;verticalAlign=top;spacingLeft=4;spacingRight=4;overflow=hidden;rotatable=0;points=[[0,0.5],[1,0.5]];portConstraint=eastwest;fontColor=#095C86;" vertex="1" parent="ZrbWM_IVjNoFiUcgMcWU-2">
          <mxGeometry y="26" width="280" height="24" as="geometry" />
        </mxCell>
        <mxCell id="ZrbWM_IVjNoFiUcgMcWU-45" value="- model: string" style="text;strokeColor=none;fillColor=none;align=left;verticalAlign=top;spacingLeft=4;spacingRight=4;overflow=hidden;rotatable=0;points=[[0,0.5],[1,0.5]];portConstraint=eastwest;fontColor=#095C86;" vertex="1" parent="ZrbWM_IVjNoFiUcgMcWU-2">
          <mxGeometry y="50" width="280" height="24" as="geometry" />
        </mxCell>
        <mxCell id="ZrbWM_IVjNoFiUcgMcWU-9" value="- processor: string" style="text;strokeColor=none;fillColor=none;align=left;verticalAlign=top;spacingLeft=4;spacingRight=4;overflow=hidden;rotatable=0;points=[[0,0.5],[1,0.5]];portConstraint=eastwest;fontColor=#095C86;" vertex="1" parent="ZrbWM_IVjNoFiUcgMcWU-2">
          <mxGeometry y="74" width="280" height="24" as="geometry" />
        </mxCell>
        <mxCell id="ZrbWM_IVjNoFiUcgMcWU-10" value="- type: string&#xa;" style="text;strokeColor=none;fillColor=none;align=left;verticalAlign=top;spacingLeft=4;spacingRight=4;overflow=hidden;rotatable=0;points=[[0,0.5],[1,0.5]];portConstraint=eastwest;fontColor=#095C86;" vertex="1" parent="ZrbWM_IVjNoFiUcgMcWU-2">
          <mxGeometry y="98" width="280" height="24" as="geometry" />
        </mxCell>
        <mxCell id="ZrbWM_IVjNoFiUcgMcWU-11" value="- simType: []string" style="text;strokeColor=none;fillColor=none;align=left;verticalAlign=top;spacingLeft=4;spacingRight=4;overflow=hidden;rotatable=0;points=[[0,0.5],[1,0.5]];portConstraint=eastwest;fontColor=#095C86;" vertex="1" parent="ZrbWM_IVjNoFiUcgMcWU-2">
          <mxGeometry y="122" width="280" height="24" as="geometry" />
        </mxCell>
        <mxCell id="ZrbWM_IVjNoFiUcgMcWU-12" value="- os: string&#xa;" style="text;strokeColor=none;fillColor=none;align=left;verticalAlign=top;spacingLeft=4;spacingRight=4;overflow=hidden;rotatable=0;points=[[0,0.5],[1,0.5]];portConstraint=eastwest;fontColor=#095C86;" vertex="1" parent="ZrbWM_IVjNoFiUcgMcWU-2">
          <mxGeometry y="146" width="280" height="24" as="geometry" />
        </mxCell>
        <mxCell id="ZrbWM_IVjNoFiUcgMcWU-13" value="- color: string&#xa;" style="text;strokeColor=none;fillColor=none;align=left;verticalAlign=top;spacingLeft=4;spacingRight=4;overflow=hidden;rotatable=0;points=[[0,0.5],[1,0.5]];portConstraint=eastwest;fontColor=#095C86;" vertex="1" parent="ZrbWM_IVjNoFiUcgMcWU-2">
          <mxGeometry y="170" width="280" height="24" as="geometry" />
        </mxCell>
        <mxCell id="ZrbWM_IVjNoFiUcgMcWU-14" value="- screen: screen&#xa;" style="text;strokeColor=none;fillColor=none;align=left;verticalAlign=top;spacingLeft=4;spacingRight=4;overflow=hidden;rotatable=0;points=[[0,0.5],[1,0.5]];portConstraint=eastwest;fontColor=#095C86;" vertex="1" parent="ZrbWM_IVjNoFiUcgMcWU-2">
          <mxGeometry y="194" width="280" height="24" as="geometry" />
        </mxCell>
        <mxCell id="ZrbWM_IVjNoFiUcgMcWU-15" value="- camera: camera" style="text;strokeColor=none;fillColor=none;align=left;verticalAlign=top;spacingLeft=4;spacingRight=4;overflow=hidden;rotatable=0;points=[[0,0.5],[1,0.5]];portConstraint=eastwest;fontColor=#095C86;" vertex="1" parent="ZrbWM_IVjNoFiUcgMcWU-2">
          <mxGeometry y="218" width="280" height="24" as="geometry" />
        </mxCell>
        <mxCell id="ZrbWM_IVjNoFiUcgMcWU-16" value="- storage: storage" style="text;strokeColor=none;fillColor=none;align=left;verticalAlign=top;spacingLeft=4;spacingRight=4;overflow=hidden;rotatable=0;points=[[0,0.5],[1,0.5]];portConstraint=eastwest;fontColor=#095C86;" vertex="1" parent="ZrbWM_IVjNoFiUcgMcWU-2">
          <mxGeometry y="242" width="280" height="24" as="geometry" />
        </mxCell>
        <mxCell id="ZrbWM_IVjNoFiUcgMcWU-17" value="- connectivity: connectivity" style="text;strokeColor=none;fillColor=none;align=left;verticalAlign=top;spacingLeft=4;spacingRight=4;overflow=hidden;rotatable=0;points=[[0,0.5],[1,0.5]];portConstraint=eastwest;fontColor=#095C86;" vertex="1" parent="ZrbWM_IVjNoFiUcgMcWU-2">
          <mxGeometry y="266" width="280" height="24" as="geometry" />
        </mxCell>
        <mxCell id="ZrbWM_IVjNoFiUcgMcWU-18" value="- features: []features" style="text;strokeColor=none;fillColor=none;align=left;verticalAlign=top;spacingLeft=4;spacingRight=4;overflow=hidden;rotatable=0;points=[[0,0.5],[1,0.5]];portConstraint=eastwest;fontColor=#095C86;" vertex="1" parent="ZrbWM_IVjNoFiUcgMcWU-2">
          <mxGeometry y="290" width="280" height="24" as="geometry" />
        </mxCell>
        <mxCell id="ZrbWM_IVjNoFiUcgMcWU-19" value="- power: power" style="text;strokeColor=none;fillColor=none;align=left;verticalAlign=top;spacingLeft=4;spacingRight=4;overflow=hidden;rotatable=0;points=[[0,0.5],[1,0.5]];portConstraint=eastwest;fontColor=#095C86;" vertex="1" parent="ZrbWM_IVjNoFiUcgMcWU-2">
          <mxGeometry y="314" width="280" height="24" as="geometry" />
        </mxCell>
        <mxCell id="ZrbWM_IVjNoFiUcgMcWU-30" value="- apps: []app" style="text;strokeColor=none;fillColor=none;align=left;verticalAlign=top;spacingLeft=4;spacingRight=4;overflow=hidden;rotatable=0;points=[[0,0.5],[1,0.5]];portConstraint=eastwest;fontColor=#095C86;" vertex="1" parent="ZrbWM_IVjNoFiUcgMcWU-2">
          <mxGeometry y="338" width="280" height="24" as="geometry" />
        </mxCell>
        <mxCell id="ZrbWM_IVjNoFiUcgMcWU-4" value="" style="line;strokeWidth=1;fillColor=none;align=left;verticalAlign=middle;spacingTop=-1;spacingLeft=3;spacingRight=3;rotatable=0;labelPosition=right;points=[];portConstraint=eastwest;strokeColor=#AF45ED;fontColor=#095C86;" vertex="1" parent="ZrbWM_IVjNoFiUcgMcWU-2">
          <mxGeometry y="362" width="280" height="8" as="geometry" />
        </mxCell>
        <mxCell id="ZrbWM_IVjNoFiUcgMcWU-5" value="+ powerOn(): void" style="text;strokeColor=#666666;fillColor=#f5f5f5;align=left;verticalAlign=top;spacingLeft=4;spacingRight=4;overflow=hidden;rotatable=0;points=[[0,0.5],[1,0.5]];portConstraint=eastwest;fontColor=#333333;" vertex="1" parent="ZrbWM_IVjNoFiUcgMcWU-2">
          <mxGeometry y="370" width="280" height="26" as="geometry" />
        </mxCell>
        <mxCell id="ZrbWM_IVjNoFiUcgMcWU-21" value="+ powerOff(): void" style="text;strokeColor=#666666;fillColor=#f5f5f5;align=left;verticalAlign=top;spacingLeft=4;spacingRight=4;overflow=hidden;rotatable=0;points=[[0,0.5],[1,0.5]];portConstraint=eastwest;fontColor=#333333;" vertex="1" parent="ZrbWM_IVjNoFiUcgMcWU-2">
          <mxGeometry y="396" width="280" height="26" as="geometry" />
        </mxCell>
        <mxCell id="ZrbWM_IVjNoFiUcgMcWU-32" value="+ reboot(): void" style="text;strokeColor=#666666;fillColor=#f5f5f5;align=left;verticalAlign=top;spacingLeft=4;spacingRight=4;overflow=hidden;rotatable=0;points=[[0,0.5],[1,0.5]];portConstraint=eastwest;fontColor=#333333;" vertex="1" parent="ZrbWM_IVjNoFiUcgMcWU-2">
          <mxGeometry y="422" width="280" height="26" as="geometry" />
        </mxCell>
        <mxCell id="ZrbWM_IVjNoFiUcgMcWU-22" value="+ call(string, string): void" style="text;strokeColor=#6c8ebf;fillColor=#dae8fc;align=left;verticalAlign=top;spacingLeft=4;spacingRight=4;overflow=hidden;rotatable=0;points=[[0,0.5],[1,0.5]];portConstraint=eastwest;" vertex="1" parent="ZrbWM_IVjNoFiUcgMcWU-2">
          <mxGeometry y="448" width="280" height="26" as="geometry" />
        </mxCell>
        <mxCell id="ZrbWM_IVjNoFiUcgMcWU-26" value="+ getSMS(string, string, string): string" style="text;strokeColor=#6c8ebf;fillColor=#dae8fc;align=left;verticalAlign=top;spacingLeft=4;spacingRight=4;overflow=hidden;rotatable=0;points=[[0,0.5],[1,0.5]];portConstraint=eastwest;" vertex="1" parent="ZrbWM_IVjNoFiUcgMcWU-2">
          <mxGeometry y="474" width="280" height="26" as="geometry" />
        </mxCell>
        <mxCell id="ZrbWM_IVjNoFiUcgMcWU-23" value="+ sendSMS(string, string, string): void" style="text;strokeColor=#6c8ebf;fillColor=#dae8fc;align=left;verticalAlign=top;spacingLeft=4;spacingRight=4;overflow=hidden;rotatable=0;points=[[0,0.5],[1,0.5]];portConstraint=eastwest;" vertex="1" parent="ZrbWM_IVjNoFiUcgMcWU-2">
          <mxGeometry y="500" width="280" height="26" as="geometry" />
        </mxCell>
        <mxCell id="ZrbWM_IVjNoFiUcgMcWU-24" value="+ sendMms(string, string, string, mms): void" style="text;strokeColor=#6c8ebf;fillColor=#dae8fc;align=left;verticalAlign=top;spacingLeft=4;spacingRight=4;overflow=hidden;rotatable=0;points=[[0,0.5],[1,0.5]];portConstraint=eastwest;" vertex="1" parent="ZrbWM_IVjNoFiUcgMcWU-2">
          <mxGeometry y="526" width="280" height="26" as="geometry" />
        </mxCell>
        <mxCell id="ZrbWM_IVjNoFiUcgMcWU-27" value="+ getMms(string, string,  string): mms" style="text;strokeColor=#6c8ebf;fillColor=#dae8fc;align=left;verticalAlign=top;spacingLeft=4;spacingRight=4;overflow=hidden;rotatable=0;points=[[0,0.5],[1,0.5]];portConstraint=eastwest;" vertex="1" parent="ZrbWM_IVjNoFiUcgMcWU-2">
          <mxGeometry y="552" width="280" height="26" as="geometry" />
        </mxCell>
        <mxCell id="ZrbWM_IVjNoFiUcgMcWU-25" value="+ photo(): string" style="text;strokeColor=#82b366;fillColor=#d5e8d4;align=left;verticalAlign=top;spacingLeft=4;spacingRight=4;overflow=hidden;rotatable=0;points=[[0,0.5],[1,0.5]];portConstraint=eastwest;" vertex="1" parent="ZrbWM_IVjNoFiUcgMcWU-2">
          <mxGeometry y="578" width="280" height="26" as="geometry" />
        </mxCell>
        <mxCell id="ZrbWM_IVjNoFiUcgMcWU-28" value="+ getSpecification(): string" style="text;strokeColor=#d79b00;fillColor=#ffe6cc;align=left;verticalAlign=top;spacingLeft=4;spacingRight=4;overflow=hidden;rotatable=0;points=[[0,0.5],[1,0.5]];portConstraint=eastwest;" vertex="1" parent="ZrbWM_IVjNoFiUcgMcWU-2">
          <mxGeometry y="604" width="280" height="26" as="geometry" />
        </mxCell>
        <mxCell id="ZrbWM_IVjNoFiUcgMcWU-29" value="+ openApp(string): void " style="text;strokeColor=#b85450;fillColor=#f8cecc;align=left;verticalAlign=top;spacingLeft=4;spacingRight=4;overflow=hidden;rotatable=0;points=[[0,0.5],[1,0.5]];portConstraint=eastwest;" vertex="1" parent="ZrbWM_IVjNoFiUcgMcWU-2">
          <mxGeometry y="630" width="280" height="26" as="geometry" />
        </mxCell>
        <mxCell id="ZrbWM_IVjNoFiUcgMcWU-31" value="+ closeApp(string): void " style="text;strokeColor=#b85450;fillColor=#f8cecc;align=left;verticalAlign=top;spacingLeft=4;spacingRight=4;overflow=hidden;rotatable=0;points=[[0,0.5],[1,0.5]];portConstraint=eastwest;" vertex="1" parent="ZrbWM_IVjNoFiUcgMcWU-2">
          <mxGeometry y="656" width="280" height="26" as="geometry" />
        </mxCell>
        <mxCell id="ZrbWM_IVjNoFiUcgMcWU-33" value="+ getApps(): []app " style="text;strokeColor=#b85450;fillColor=#f8cecc;align=left;verticalAlign=top;spacingLeft=4;spacingRight=4;overflow=hidden;rotatable=0;points=[[0,0.5],[1,0.5]];portConstraint=eastwest;" vertex="1" parent="ZrbWM_IVjNoFiUcgMcWU-2">
          <mxGeometry y="682" width="280" height="26" as="geometry" />
        </mxCell>
        <mxCell id="ZrbWM_IVjNoFiUcgMcWU-37" value="+ deleteApp(string): void " style="text;strokeColor=#b85450;fillColor=#f8cecc;align=left;verticalAlign=top;spacingLeft=4;spacingRight=4;overflow=hidden;rotatable=0;points=[[0,0.5],[1,0.5]];portConstraint=eastwest;" vertex="1" parent="ZrbWM_IVjNoFiUcgMcWU-2">
          <mxGeometry y="708" width="280" height="26" as="geometry" />
        </mxCell>
        <mxCell id="ZrbWM_IVjNoFiUcgMcWU-42" value="+ installApp(string): void " style="text;strokeColor=#b85450;fillColor=#f8cecc;align=left;verticalAlign=top;spacingLeft=4;spacingRight=4;overflow=hidden;rotatable=0;points=[[0,0.5],[1,0.5]];portConstraint=eastwest;" vertex="1" parent="ZrbWM_IVjNoFiUcgMcWU-2">
          <mxGeometry y="734" width="280" height="26" as="geometry" />
        </mxCell>
        <mxCell id="ZrbWM_IVjNoFiUcgMcWU-38" value="+ getFiles(): []file" style="text;strokeColor=#9673a6;fillColor=#e1d5e7;align=left;verticalAlign=top;spacingLeft=4;spacingRight=4;overflow=hidden;rotatable=0;points=[[0,0.5],[1,0.5]];portConstraint=eastwest;" vertex="1" parent="ZrbWM_IVjNoFiUcgMcWU-2">
          <mxGeometry y="760" width="280" height="26" as="geometry" />
        </mxCell>
        <mxCell id="ZrbWM_IVjNoFiUcgMcWU-39" value="+ createFile(string, {}): void" style="text;strokeColor=#9673a6;fillColor=#e1d5e7;align=left;verticalAlign=top;spacingLeft=4;spacingRight=4;overflow=hidden;rotatable=0;points=[[0,0.5],[1,0.5]];portConstraint=eastwest;" vertex="1" parent="ZrbWM_IVjNoFiUcgMcWU-2">
          <mxGeometry y="786" width="280" height="26" as="geometry" />
        </mxCell>
        <mxCell id="ZrbWM_IVjNoFiUcgMcWU-40" value="+ openFile(string): void" style="text;strokeColor=#9673a6;fillColor=#e1d5e7;align=left;verticalAlign=top;spacingLeft=4;spacingRight=4;overflow=hidden;rotatable=0;points=[[0,0.5],[1,0.5]];portConstraint=eastwest;" vertex="1" parent="ZrbWM_IVjNoFiUcgMcWU-2">
          <mxGeometry y="812" width="280" height="26" as="geometry" />
        </mxCell>
        <mxCell id="ZrbWM_IVjNoFiUcgMcWU-43" value="+ closeFile(string): void" style="text;strokeColor=#9673a6;fillColor=#e1d5e7;align=left;verticalAlign=top;spacingLeft=4;spacingRight=4;overflow=hidden;rotatable=0;points=[[0,0.5],[1,0.5]];portConstraint=eastwest;" vertex="1" parent="ZrbWM_IVjNoFiUcgMcWU-2">
          <mxGeometry y="838" width="280" height="26" as="geometry" />
        </mxCell>
        <mxCell id="ZrbWM_IVjNoFiUcgMcWU-41" value="+ deleteFile(string): void" style="text;strokeColor=#9673a6;fillColor=#e1d5e7;align=left;verticalAlign=top;spacingLeft=4;spacingRight=4;overflow=hidden;rotatable=0;points=[[0,0.5],[1,0.5]];portConstraint=eastwest;" vertex="1" parent="ZrbWM_IVjNoFiUcgMcWU-2">
          <mxGeometry y="864" width="280" height="26" as="geometry" />
        </mxCell>
        <mxCell id="ZrbWM_IVjNoFiUcgMcWU-48" value="Screen" style="swimlane;fontStyle=1;align=center;verticalAlign=top;childLayout=stackLayout;horizontal=1;startSize=26;horizontalStack=0;resizeParent=1;resizeParentMax=0;resizeLast=0;collapsible=1;marginBottom=0;rounded=0;sketch=0;fontColor=#095C86;strokeColor=#AF45ED;fillColor=#F694C1;" vertex="1" parent="1">
          <mxGeometry x="1680" width="160" height="240" as="geometry" />
        </mxCell>
        <mxCell id="ZrbWM_IVjNoFiUcgMcWU-49" value="- size: float" style="text;strokeColor=none;fillColor=none;align=left;verticalAlign=top;spacingLeft=4;spacingRight=4;overflow=hidden;rotatable=0;points=[[0,0.5],[1,0.5]];portConstraint=eastwest;" vertex="1" parent="ZrbWM_IVjNoFiUcgMcWU-48">
          <mxGeometry y="26" width="160" height="26" as="geometry" />
        </mxCell>
        <mxCell id="ZrbWM_IVjNoFiUcgMcWU-59" value="- resolution: string" style="text;strokeColor=none;fillColor=none;align=left;verticalAlign=top;spacingLeft=4;spacingRight=4;overflow=hidden;rotatable=0;points=[[0,0.5],[1,0.5]];portConstraint=eastwest;" vertex="1" parent="ZrbWM_IVjNoFiUcgMcWU-48">
          <mxGeometry y="52" width="160" height="26" as="geometry" />
        </mxCell>
        <mxCell id="ZrbWM_IVjNoFiUcgMcWU-60" value="- type: string" style="text;strokeColor=none;fillColor=none;align=left;verticalAlign=top;spacingLeft=4;spacingRight=4;overflow=hidden;rotatable=0;points=[[0,0.5],[1,0.5]];portConstraint=eastwest;" vertex="1" parent="ZrbWM_IVjNoFiUcgMcWU-48">
          <mxGeometry y="78" width="160" height="26" as="geometry" />
        </mxCell>
        <mxCell id="ZrbWM_IVjNoFiUcgMcWU-61" value="- touchscreen: bool" style="text;strokeColor=none;fillColor=none;align=left;verticalAlign=top;spacingLeft=4;spacingRight=4;overflow=hidden;rotatable=0;points=[[0,0.5],[1,0.5]];portConstraint=eastwest;" vertex="1" parent="ZrbWM_IVjNoFiUcgMcWU-48">
          <mxGeometry y="104" width="160" height="26" as="geometry" />
        </mxCell>
        <mxCell id="ZrbWM_IVjNoFiUcgMcWU-62" value="- ppi: ing" style="text;strokeColor=none;fillColor=none;align=left;verticalAlign=top;spacingLeft=4;spacingRight=4;overflow=hidden;rotatable=0;points=[[0,0.5],[1,0.5]];portConstraint=eastwest;" vertex="1" parent="ZrbWM_IVjNoFiUcgMcWU-48">
          <mxGeometry y="130" width="160" height="26" as="geometry" />
        </mxCell>
        <mxCell id="ZrbWM_IVjNoFiUcgMcWU-63" value="- features: []features" style="text;strokeColor=none;fillColor=none;align=left;verticalAlign=top;spacingLeft=4;spacingRight=4;overflow=hidden;rotatable=0;points=[[0,0.5],[1,0.5]];portConstraint=eastwest;" vertex="1" parent="ZrbWM_IVjNoFiUcgMcWU-48">
          <mxGeometry y="156" width="160" height="24" as="geometry" />
        </mxCell>
        <mxCell id="ZrbWM_IVjNoFiUcgMcWU-50" value="" style="line;strokeWidth=1;fillColor=none;align=left;verticalAlign=middle;spacingTop=-1;spacingLeft=3;spacingRight=3;rotatable=0;labelPosition=right;points=[];portConstraint=eastwest;" vertex="1" parent="ZrbWM_IVjNoFiUcgMcWU-48">
          <mxGeometry y="180" width="160" height="8" as="geometry" />
        </mxCell>
        <mxCell id="ZrbWM_IVjNoFiUcgMcWU-66" value="+ powerOn(): void" style="text;strokeColor=#666666;fillColor=#f5f5f5;align=left;verticalAlign=top;spacingLeft=4;spacingRight=4;overflow=hidden;rotatable=0;points=[[0,0.5],[1,0.5]];portConstraint=eastwest;fontColor=#333333;" vertex="1" parent="ZrbWM_IVjNoFiUcgMcWU-48">
          <mxGeometry y="188" width="160" height="26" as="geometry" />
        </mxCell>
        <mxCell id="ZrbWM_IVjNoFiUcgMcWU-67" value="+ powerOff(): void" style="text;strokeColor=#666666;fillColor=#f5f5f5;align=left;verticalAlign=top;spacingLeft=4;spacingRight=4;overflow=hidden;rotatable=0;points=[[0,0.5],[1,0.5]];portConstraint=eastwest;fontColor=#333333;" vertex="1" parent="ZrbWM_IVjNoFiUcgMcWU-48">
          <mxGeometry y="214" width="160" height="26" as="geometry" />
        </mxCell>
        <mxCell id="ZrbWM_IVjNoFiUcgMcWU-53" value="Camera" style="swimlane;fontStyle=1;align=center;verticalAlign=top;childLayout=stackLayout;horizontal=1;startSize=26;horizontalStack=0;resizeParent=1;resizeParentMax=0;resizeLast=0;collapsible=1;marginBottom=0;rounded=0;sketch=0;fontColor=#095C86;strokeColor=#AF45ED;fillColor=#F694C1;" vertex="1" parent="1">
          <mxGeometry x="1680" y="280" width="160" height="214" as="geometry" />
        </mxCell>
        <mxCell id="ZrbWM_IVjNoFiUcgMcWU-54" value="- camera: []string" style="text;strokeColor=none;fillColor=none;align=left;verticalAlign=top;spacingLeft=4;spacingRight=4;overflow=hidden;rotatable=0;points=[[0,0.5],[1,0.5]];portConstraint=eastwest;" vertex="1" parent="ZrbWM_IVjNoFiUcgMcWU-53">
          <mxGeometry y="26" width="160" height="26" as="geometry" />
        </mxCell>
        <mxCell id="ZrbWM_IVjNoFiUcgMcWU-68" value="- resolution: []string" style="text;strokeColor=none;fillColor=none;align=left;verticalAlign=top;spacingLeft=4;spacingRight=4;overflow=hidden;rotatable=0;points=[[0,0.5],[1,0.5]];portConstraint=eastwest;" vertex="1" parent="ZrbWM_IVjNoFiUcgMcWU-53">
          <mxGeometry y="52" width="160" height="26" as="geometry" />
        </mxCell>
        <mxCell id="ZrbWM_IVjNoFiUcgMcWU-69" value="- flash: string" style="text;strokeColor=none;fillColor=none;align=left;verticalAlign=top;spacingLeft=4;spacingRight=4;overflow=hidden;rotatable=0;points=[[0,0.5],[1,0.5]];portConstraint=eastwest;" vertex="1" parent="ZrbWM_IVjNoFiUcgMcWU-53">
          <mxGeometry y="78" width="160" height="26" as="geometry" />
        </mxCell>
        <mxCell id="ZrbWM_IVjNoFiUcgMcWU-70" value="- features: []features" style="text;strokeColor=none;fillColor=none;align=left;verticalAlign=top;spacingLeft=4;spacingRight=4;overflow=hidden;rotatable=0;points=[[0,0.5],[1,0.5]];portConstraint=eastwest;" vertex="1" parent="ZrbWM_IVjNoFiUcgMcWU-53">
          <mxGeometry y="104" width="160" height="24" as="geometry" />
        </mxCell>
        <mxCell id="ZrbWM_IVjNoFiUcgMcWU-55" value="" style="line;strokeWidth=1;fillColor=none;align=left;verticalAlign=middle;spacingTop=-1;spacingLeft=3;spacingRight=3;rotatable=0;labelPosition=right;points=[];portConstraint=eastwest;" vertex="1" parent="ZrbWM_IVjNoFiUcgMcWU-53">
          <mxGeometry y="128" width="160" height="8" as="geometry" />
        </mxCell>
        <mxCell id="ZrbWM_IVjNoFiUcgMcWU-71" value="+ powerOn(): void" style="text;strokeColor=#666666;fillColor=#f5f5f5;align=left;verticalAlign=top;spacingLeft=4;spacingRight=4;overflow=hidden;rotatable=0;points=[[0,0.5],[1,0.5]];portConstraint=eastwest;fontColor=#333333;" vertex="1" parent="ZrbWM_IVjNoFiUcgMcWU-53">
          <mxGeometry y="136" width="160" height="26" as="geometry" />
        </mxCell>
        <mxCell id="ZrbWM_IVjNoFiUcgMcWU-72" value="+ powerOff(): void" style="text;strokeColor=#666666;fillColor=#f5f5f5;align=left;verticalAlign=top;spacingLeft=4;spacingRight=4;overflow=hidden;rotatable=0;points=[[0,0.5],[1,0.5]];portConstraint=eastwest;fontColor=#333333;" vertex="1" parent="ZrbWM_IVjNoFiUcgMcWU-53">
          <mxGeometry y="162" width="160" height="26" as="geometry" />
        </mxCell>
        <mxCell id="ZrbWM_IVjNoFiUcgMcWU-73" value="+ zoom(int): void" style="text;strokeColor=#666666;fillColor=#f5f5f5;align=left;verticalAlign=top;spacingLeft=4;spacingRight=4;overflow=hidden;rotatable=0;points=[[0,0.5],[1,0.5]];portConstraint=eastwest;fontColor=#333333;" vertex="1" parent="ZrbWM_IVjNoFiUcgMcWU-53">
          <mxGeometry y="188" width="160" height="26" as="geometry" />
        </mxCell>
        <mxCell id="ZrbWM_IVjNoFiUcgMcWU-58" value="" style="endArrow=diamondThin;endFill=1;endSize=24;html=1;fontColor=#095C86;strokeColor=#60E696;fillColor=#F694C1;exitX=1;exitY=0;exitDx=0;exitDy=0;entryX=0;entryY=0.589;entryDx=0;entryDy=0;entryPerimeter=0;" edge="1" parent="1" source="ZrbWM_IVjNoFiUcgMcWU-48" target="ZrbWM_IVjNoFiUcgMcWU-14">
          <mxGeometry width="160" relative="1" as="geometry">
            <mxPoint x="1840" y="10" as="sourcePoint" />
            <mxPoint x="2040" y="213" as="targetPoint" />
            <Array as="points">
              <mxPoint x="1880" />
              <mxPoint x="1880" y="208" />
            </Array>
          </mxGeometry>
        </mxCell>
        <mxCell id="ZrbWM_IVjNoFiUcgMcWU-75" value="Storage" style="swimlane;fontStyle=1;align=center;verticalAlign=top;childLayout=stackLayout;horizontal=1;startSize=26;horizontalStack=0;resizeParent=1;resizeParentMax=0;resizeLast=0;collapsible=1;marginBottom=0;rounded=0;sketch=0;fontColor=#000000;strokeColor=#AF45ED;fillColor=#F694C1;" vertex="1" parent="1">
          <mxGeometry x="1680" y="510" width="180" height="164" as="geometry" />
        </mxCell>
        <mxCell id="ZrbWM_IVjNoFiUcgMcWU-76" value="- internalStorage: int" style="text;strokeColor=none;fillColor=none;align=left;verticalAlign=top;spacingLeft=4;spacingRight=4;overflow=hidden;rotatable=0;points=[[0,0.5],[1,0.5]];portConstraint=eastwest;" vertex="1" parent="ZrbWM_IVjNoFiUcgMcWU-75">
          <mxGeometry y="26" width="180" height="26" as="geometry" />
        </mxCell>
        <mxCell id="ZrbWM_IVjNoFiUcgMcWU-79" value="- memoryCardSupported: bool" style="text;strokeColor=none;fillColor=none;align=left;verticalAlign=top;spacingLeft=4;spacingRight=4;overflow=hidden;rotatable=0;points=[[0,0.5],[1,0.5]];portConstraint=eastwest;" vertex="1" parent="ZrbWM_IVjNoFiUcgMcWU-75">
          <mxGeometry y="52" width="180" height="26" as="geometry" />
        </mxCell>
        <mxCell id="ZrbWM_IVjNoFiUcgMcWU-77" value="" style="line;strokeWidth=1;fillColor=none;align=left;verticalAlign=middle;spacingTop=-1;spacingLeft=3;spacingRight=3;rotatable=0;labelPosition=right;points=[];portConstraint=eastwest;" vertex="1" parent="ZrbWM_IVjNoFiUcgMcWU-75">
          <mxGeometry y="78" width="180" height="8" as="geometry" />
        </mxCell>
        <mxCell id="ZrbWM_IVjNoFiUcgMcWU-100" value="+ zoom(int): void" style="text;strokeColor=#666666;fillColor=#f5f5f5;align=left;verticalAlign=top;spacingLeft=4;spacingRight=4;overflow=hidden;rotatable=0;points=[[0,0.5],[1,0.5]];portConstraint=eastwest;fontColor=#333333;" vertex="1" parent="ZrbWM_IVjNoFiUcgMcWU-75">
          <mxGeometry y="86" width="180" height="26" as="geometry" />
        </mxCell>
        <mxCell id="ZrbWM_IVjNoFiUcgMcWU-99" value="+ powerOff(): void" style="text;strokeColor=#666666;fillColor=#f5f5f5;align=left;verticalAlign=top;spacingLeft=4;spacingRight=4;overflow=hidden;rotatable=0;points=[[0,0.5],[1,0.5]];portConstraint=eastwest;fontColor=#333333;" vertex="1" parent="ZrbWM_IVjNoFiUcgMcWU-75">
          <mxGeometry y="112" width="180" height="26" as="geometry" />
        </mxCell>
        <mxCell id="ZrbWM_IVjNoFiUcgMcWU-98" value="+ powerOn(): void" style="text;strokeColor=#666666;fillColor=#f5f5f5;align=left;verticalAlign=top;spacingLeft=4;spacingRight=4;overflow=hidden;rotatable=0;points=[[0,0.5],[1,0.5]];portConstraint=eastwest;fontColor=#333333;" vertex="1" parent="ZrbWM_IVjNoFiUcgMcWU-75">
          <mxGeometry y="138" width="180" height="26" as="geometry" />
        </mxCell>
        <mxCell id="ZrbWM_IVjNoFiUcgMcWU-81" value="" style="endArrow=diamondThin;endFill=1;endSize=24;html=1;fontColor=#095C86;strokeColor=#60E696;fillColor=#F694C1;exitX=1;exitY=0;exitDx=0;exitDy=0;" edge="1" parent="1" source="ZrbWM_IVjNoFiUcgMcWU-75" target="ZrbWM_IVjNoFiUcgMcWU-16">
          <mxGeometry width="160" relative="1" as="geometry">
            <mxPoint x="1850" y="290" as="sourcePoint" />
            <mxPoint x="2065.76" y="245.8320000000001" as="targetPoint" />
            <Array as="points">
              <mxPoint x="1880" y="510" />
              <mxPoint x="1880" y="290" />
              <mxPoint x="1950" y="290" />
              <mxPoint x="2010" y="290" />
              <mxPoint x="2010" y="260" />
              <mxPoint x="2050" y="260" />
            </Array>
          </mxGeometry>
        </mxCell>
        <mxCell id="ZrbWM_IVjNoFiUcgMcWU-82" value="Connectivivy" style="swimlane;fontStyle=1;align=center;verticalAlign=top;childLayout=stackLayout;horizontal=1;startSize=26;horizontalStack=0;resizeParent=1;resizeParentMax=0;resizeLast=0;collapsible=1;marginBottom=0;rounded=0;sketch=0;fontColor=#000000;strokeColor=#AF45ED;fillColor=#F694C1;" vertex="1" parent="1">
          <mxGeometry x="1680" y="690" width="160" height="294" as="geometry" />
        </mxCell>
        <mxCell id="ZrbWM_IVjNoFiUcgMcWU-87" value="- сhargingPort: string" style="text;strokeColor=none;fillColor=none;align=left;verticalAlign=top;spacingLeft=4;spacingRight=4;overflow=hidden;rotatable=0;points=[[0,0.5],[1,0.5]];portConstraint=eastwest;" vertex="1" parent="ZrbWM_IVjNoFiUcgMcWU-82">
          <mxGeometry y="26" width="160" height="26" as="geometry" />
        </mxCell>
        <mxCell id="ZrbWM_IVjNoFiUcgMcWU-89" value="- wifi: bool" style="text;strokeColor=none;fillColor=none;align=left;verticalAlign=top;spacingLeft=4;spacingRight=4;overflow=hidden;rotatable=0;points=[[0,0.5],[1,0.5]];portConstraint=eastwest;" vertex="1" parent="ZrbWM_IVjNoFiUcgMcWU-82">
          <mxGeometry y="52" width="160" height="26" as="geometry" />
        </mxCell>
        <mxCell id="ZrbWM_IVjNoFiUcgMcWU-90" value="- wifiHotspot: bool" style="text;strokeColor=none;fillColor=none;align=left;verticalAlign=top;spacingLeft=4;spacingRight=4;overflow=hidden;rotatable=0;points=[[0,0.5],[1,0.5]];portConstraint=eastwest;" vertex="1" parent="ZrbWM_IVjNoFiUcgMcWU-82">
          <mxGeometry y="78" width="160" height="26" as="geometry" />
        </mxCell>
        <mxCell id="ZrbWM_IVjNoFiUcgMcWU-92" value="- 4Gnetwork: []string" style="text;strokeColor=none;fillColor=none;align=left;verticalAlign=top;spacingLeft=4;spacingRight=4;overflow=hidden;rotatable=0;points=[[0,0.5],[1,0.5]];portConstraint=eastwest;" vertex="1" parent="ZrbWM_IVjNoFiUcgMcWU-82">
          <mxGeometry y="104" width="160" height="26" as="geometry" />
        </mxCell>
        <mxCell id="ZrbWM_IVjNoFiUcgMcWU-93" value="- bluetooth: string" style="text;strokeColor=none;fillColor=none;align=left;verticalAlign=top;spacingLeft=4;spacingRight=4;overflow=hidden;rotatable=0;points=[[0,0.5],[1,0.5]];portConstraint=eastwest;" vertex="1" parent="ZrbWM_IVjNoFiUcgMcWU-82">
          <mxGeometry y="130" width="160" height="26" as="geometry" />
        </mxCell>
        <mxCell id="ZrbWM_IVjNoFiUcgMcWU-94" value="- NFC: bool" style="text;strokeColor=none;fillColor=none;align=left;verticalAlign=top;spacingLeft=4;spacingRight=4;overflow=hidden;rotatable=0;points=[[0,0.5],[1,0.5]];portConstraint=eastwest;" vertex="1" parent="ZrbWM_IVjNoFiUcgMcWU-82">
          <mxGeometry y="156" width="160" height="26" as="geometry" />
        </mxCell>
        <mxCell id="ZrbWM_IVjNoFiUcgMcWU-95" value="- GPS: bool" style="text;strokeColor=none;fillColor=none;align=left;verticalAlign=top;spacingLeft=4;spacingRight=4;overflow=hidden;rotatable=0;points=[[0,0.5],[1,0.5]];portConstraint=eastwest;" vertex="1" parent="ZrbWM_IVjNoFiUcgMcWU-82">
          <mxGeometry y="182" width="160" height="26" as="geometry" />
        </mxCell>
        <mxCell id="ZrbWM_IVjNoFiUcgMcWU-96" value="- sensor: []string" style="text;strokeColor=none;fillColor=none;align=left;verticalAlign=top;spacingLeft=4;spacingRight=4;overflow=hidden;rotatable=0;points=[[0,0.5],[1,0.5]];portConstraint=eastwest;" vertex="1" parent="ZrbWM_IVjNoFiUcgMcWU-82">
          <mxGeometry y="208" width="160" height="26" as="geometry" />
        </mxCell>
        <mxCell id="ZrbWM_IVjNoFiUcgMcWU-97" value="- speakers: string" style="text;strokeColor=none;fillColor=none;align=left;verticalAlign=top;spacingLeft=4;spacingRight=4;overflow=hidden;rotatable=0;points=[[0,0.5],[1,0.5]];portConstraint=eastwest;" vertex="1" parent="ZrbWM_IVjNoFiUcgMcWU-82">
          <mxGeometry y="234" width="160" height="26" as="geometry" />
        </mxCell>
        <mxCell id="ZrbWM_IVjNoFiUcgMcWU-84" value="" style="line;strokeWidth=1;fillColor=none;align=left;verticalAlign=middle;spacingTop=-1;spacingLeft=3;spacingRight=3;rotatable=0;labelPosition=right;points=[];portConstraint=eastwest;" vertex="1" parent="ZrbWM_IVjNoFiUcgMcWU-82">
          <mxGeometry y="260" width="160" height="8" as="geometry" />
        </mxCell>
        <mxCell id="ZrbWM_IVjNoFiUcgMcWU-85" value="+ method(type): type" style="text;strokeColor=none;fillColor=none;align=left;verticalAlign=top;spacingLeft=4;spacingRight=4;overflow=hidden;rotatable=0;points=[[0,0.5],[1,0.5]];portConstraint=eastwest;" vertex="1" parent="ZrbWM_IVjNoFiUcgMcWU-82">
          <mxGeometry y="268" width="160" height="26" as="geometry" />
        </mxCell>
        <mxCell id="ZrbWM_IVjNoFiUcgMcWU-86" value="" style="endArrow=diamondThin;endFill=1;endSize=24;html=1;fontColor=#095C86;strokeColor=#60E696;fillColor=#F694C1;exitX=1;exitY=0;exitDx=0;exitDy=0;entryX=0;entryY=0.5;entryDx=0;entryDy=0;" edge="1" parent="1" source="ZrbWM_IVjNoFiUcgMcWU-82" target="ZrbWM_IVjNoFiUcgMcWU-17">
          <mxGeometry width="160" relative="1" as="geometry">
            <mxPoint x="1870" y="520" as="sourcePoint" />
            <mxPoint x="2050" y="280" as="targetPoint" />
            <Array as="points">
              <mxPoint x="1890" y="690" />
              <mxPoint x="1890" y="300" />
              <mxPoint x="2020" y="300" />
              <mxPoint x="2020" y="280" />
            </Array>
          </mxGeometry>
        </mxCell>
        <mxCell id="ZrbWM_IVjNoFiUcgMcWU-91" value="" style="endArrow=diamondThin;endFill=1;endSize=24;html=1;fontColor=#000000;strokeColor=#60E696;fillColor=#F694C1;exitX=1;exitY=0;exitDx=0;exitDy=0;" edge="1" parent="1" source="ZrbWM_IVjNoFiUcgMcWU-53">
          <mxGeometry width="160" relative="1" as="geometry">
            <mxPoint x="1860" y="270" as="sourcePoint" />
            <mxPoint x="2060" y="230" as="targetPoint" />
            <Array as="points">
              <mxPoint x="1940" y="280" />
              <mxPoint x="1940" y="230" />
            </Array>
          </mxGeometry>
        </mxCell>
      </root>
    </mxGraphModel>
  </diagram>
</mxfile>
